<?xml version='1.0' encoding='utf-8'?>
<svg xmlns="http://www.w3.org/2000/svg" width="1920" height="1080" viewBox="0 0 1920 1080" data-theme="dark" data-semantic-intent="compare" data-relation-type="quantitative" data-site-visual-identity="heritage-amber">
  <style>
        @font-face {
            font-family: 'Inter';
            src: url('assets/fonts/Inter-Regular.ttf') format('truetype');
            font-weight: 400;
            font-style: normal;
            font-display: swap;
        }
        @font-face {
            font-family: 'Inter';
            src: url('assets/fonts/Inter-Bold.ttf') format('truetype');
            font-weight: 600;
            font-style: normal;
            font-display: swap;
        }
        @font-face {
            font-family: 'Inter';
            src: url('assets/fonts/Inter-Bold.ttf') format('truetype');
            font-weight: 800;
            font-style: normal;
            font-display: swap;
        }
        
:root {
    --background: #0f172a;
    --panel: #1e293b;
    --primary-text: #f1f5f9;
    --muted-text: #94a3b8;
    --inverse-text: #0f172a;
    --border: #334155;
    --shadow-color: #000000;
    --icon-pad-bg: #1e293b;
    --art-glow: #7dd3fc;
    --art-glow-opacity: 0.18;
    --art-sheen: #ffffff;
    --art-sheen-opacity: 0.18;
    --art-shadow: #000000;
    --art-shadow-opacity: 0.28;
    --art-muted-line: #64748b;
    --art-panel-tint: #1e293b;
    --semantic-risk: #f87171;
    --semantic-warning: #fb923c;
    --semantic-uncertain: #fbbf24;
    --semantic-evidence: #60a5fa;
    --semantic-claim: #c084fc;
    --semantic-positive: #4ade80;
    --semantic-outcome: #22d3ee;
    --font-family: 'Inter', 'Segoe UI', 'Kalam', Roboto, Helvetica, Arial, sans-serif;
    --radius-xl: 16px;
    --font-family-headline: 'Segoe UI Variable Display', 'Aptos Display', 'Inter', 'Segoe UI', Helvetica, Arial, sans-serif;
    --font-family-body: 'Segoe UI Variable Text', 'Aptos', 'Inter', 'Segoe UI', Helvetica, Arial, sans-serif;
    --font-heading: var(--font-family-headline);
    --font-body: var(--font-family-body);
    --font-size-h1: 64px;
    --font-size-h2: 42px;
    --font-size-h3: 29px;
    --font-size-body: 21px;
    --font-size-caption: 17px;
    --secondary-text: var(--muted-text);
    --panel-border: var(--border);
    --font-weight-normal: 400;
    --font-weight-medium: 500;
    --font-weight-semibold: 600;
    --font-weight-bold: 700;
    --spacing-gutter-pct: 0.07;
    --spacing-top-pct: 0.15;
    --spacing-bottom-pct: 0.07;
    --spacing-title-y-pct: 0.055;
    --accent-1: #fbbf24;
    --accent-2: #fb923c;
    --accent-3: #f59e0b;
    --accent-4: #fca5a5;
    --accent-5: #d6a66f;
    --accent-6: #7dd3fc;
}
:root[data-theme="dark"] {
    --background: #0f172a;
    --panel: #1e293b;
    --primary-text: #f1f5f9;
    --muted-text: #94a3b8;
    --inverse-text: #0f172a;
    --border: #334155;
    --shadow-color: #000000;
    --icon-pad-bg: #1e293b;
    --art-glow: #7dd3fc;
    --art-glow-opacity: 0.18;
    --art-sheen: #ffffff;
    --art-sheen-opacity: 0.18;
    --art-shadow: #000000;
    --art-shadow-opacity: 0.28;
    --art-muted-line: #64748b;
    --art-panel-tint: #1e293b;
    --semantic-risk: #f87171;
    --semantic-warning: #fb923c;
    --semantic-uncertain: #fbbf24;
    --semantic-evidence: #60a5fa;
    --semantic-claim: #c084fc;
    --semantic-positive: #4ade80;
    --semantic-outcome: #22d3ee;
    --accent-1: #fbbf24;
    --accent-2: #fb923c;
    --accent-3: #f59e0b;
    --accent-4: #fca5a5;
    --accent-5: #d6a66f;
    --accent-6: #7dd3fc;
}
:root[data-theme="light"] {
    --background: #f8fafc;
    --panel: #ffffff;
    --primary-text: #0f172a;
    --muted-text: #64748b;
    --inverse-text: #ffffff;
    --border: #e2e8f0;
    --shadow-color: #000000;
    --icon-pad-bg: #1e293b;
    --art-glow: #0891b2;
    --art-glow-opacity: 0.10;
    --art-sheen: #ffffff;
    --art-sheen-opacity: 0.34;
    --art-shadow: #0f172a;
    --art-shadow-opacity: 0.14;
    --art-muted-line: #94a3b8;
    --art-panel-tint: #f1f5f9;
    --semantic-risk: #b91c1c;
    --semantic-warning: #c2410c;
    --semantic-uncertain: #a16207;
    --semantic-evidence: #1d4ed8;
    --semantic-claim: #6d28d9;
    --semantic-positive: #15803d;
    --semantic-outcome: #0e7490;
    --accent-1: #a16207;
    --accent-2: #c2410c;
    --accent-3: #b45309;
    --accent-4: #b91c1c;
    --accent-5: #92400e;
    --accent-6: #0369a1;
}</style>
  <rect x="0" y="0" width="1.92E+3" height="1.08E+3" fill="#0f172a" stroke="none" id="programmatic_background"/>
  <line id="HEADER_DECOR" x1="960.0" x2="1080.0" y1="135.0" y2="135.0" stroke="var(--accent-1)" stroke-width="6" stroke-linecap="round"/>
  <defs>
    <pattern id="svg4465e9e1-napkin-hatch" patternUnits="userSpaceOnUse" width="12" height="12">
      <path d="M -3 12 L 12 -3 M 0 15 L 15 0" fill="none" stroke="var(--primary-text)" stroke-width="1" stroke-opacity="0.04"/>
    </pattern>
    <filter id="svg4465e9e1-soft-shadow" x="-30%" y="-30%" width="160%" height="160%">
      <feDropShadow dx="0" dy="4" stdDeviation="8" flood-color="#000000" flood-opacity="0.18"/>
    </filter>
    <radialGradient id="svg4465e9e1-universal-edge-vignette" cx="50%" cy="50%" r="72%">
      <stop offset="0%" stop-color="var(--background)" stop-opacity="0"/>
      <stop offset="72%" stop-color="var(--background)" stop-opacity="0.12"/>
      <stop offset="100%" stop-color="var(--primary-text)" stop-opacity="0.08"/>
    </radialGradient>
    <linearGradient id="svg4465e9e1-universal-surface-sheen" x1="0%" y1="0%" x2="100%" y2="100%">
      <stop offset="0%" stop-color="var(--art-sheen)" stop-opacity="var(--art-sheen-opacity)"/>
      <stop offset="46%" stop-color="var(--art-sheen)" stop-opacity="0.035"/>
      <stop offset="100%" stop-color="var(--art-panel-tint)" stop-opacity="0.14"/>
    </linearGradient>
    <radialGradient id="svg4465e9e1-universal-icon-aura" cx="50%" cy="42%" r="64%">
      <stop offset="0%" stop-color="var(--art-glow)" stop-opacity="var(--art-glow-opacity)"/>
      <stop offset="100%" stop-color="var(--background)" stop-opacity="0"/>
    </radialGradient>
    <linearGradient id="svg4465e9e1-tug-rope-sheen" x1="0%" y1="0%" x2="100%" y2="0%">
      <stop offset="0%" stop-color="var(--background)" stop-opacity="0"/>
      <stop offset="50%" stop-color="var(--inverse-text)" stop-opacity="0.16"/>
      <stop offset="100%" stop-color="var(--background)" stop-opacity="0"/>
    </linearGradient>
    <filter id="svg4465e9e1-text-glow" x="-20%" y="-20%" width="140%" height="140%">
      <feDropShadow dx="0" dy="0" stdDeviation="2" flood-color="#000000" flood-opacity="0.4"/>
    </filter>
    <filter id="svg4465e9e1-shadow" x="-30%" y="-30%" width="160%" height="160%">
      <feDropShadow dx="0" dy="2" stdDeviation="3" flood-color="#000000" flood-opacity="0.08"/>
      <feDropShadow dx="0" dy="6" stdDeviation="10" flood-color="#000000" flood-opacity="0.12"/>
    </filter>
    <marker id="svg4465e9e1-arrowhead" markerWidth="10" markerHeight="7" refX="9" refY="3.5" orient="auto" markerUnits="strokeWidth">
      <polygon points="0 0, 10 3.5, 0 7" fill="var(--muted-text)" opacity="0.6"/>
    </marker>
  </defs>
  <rect id="CANVAS_BG" width="100%" height="100%" fill="var(--background)"/>
  <rect width="100%" height="100%" fill="url(#svg4465e9e1-napkin-hatch)"/>
  <rect id="UNIVERSAL_EDGE_VIGNETTE" width="100%" height="100%" fill="url(#svg4465e9e1-universal-edge-vignette)" opacity="0.62"/>
  <text id="TITLE" x="960.0" y="59" text-anchor="middle" font-size="56" font-weight="800" fill="#f1f5f9" style="font-size: 69px; font-family: 'Segoe UI Variable Display', 'Aptos Display', 'Inter', 'Segoe UI', Helvetica, Arial, sans-serif; font-weight: 800; font-kerning: normal; font-feature-settings: &quot;kern&quot; 1, &quot;liga&quot; 1; letter-spacing:-1.2px;" data-final-font-size="69">
    <tspan x="960.0" dy="70.47px">Roswell UFO Festival 2022 vs 2023</tspan>
  </text>
  <rect id="TITLE_FRAME" x="134" y="59" width="1652" height="103" fill="none"/>
  <ellipse cx="960" cy="332" rx="220" ry="58" fill="var(--panel)" fill-opacity="0.48" opacity="0.34"/>
  <path d="M 162 322 Q 614 304 934 332" fill="none" stroke="var(--primary-text)" stroke-width="16" stroke-linecap="round" opacity="0.10"/>
  <path d="M 1758 322 Q 1306 304 986 332" fill="none" stroke="var(--primary-text)" stroke-width="16" stroke-linecap="round" opacity="0.10"/>
  <path d="M 200 322 Q 616 308 936 332" fill="none" stroke="var(--muted-text)" stroke-width="8" stroke-linecap="round" opacity="0.88"/>
  <path d="M 1720 322 Q 1304 308 984 332" fill="none" stroke="var(--muted-text)" stroke-width="8" stroke-linecap="round" opacity="0.88"/>
  <path d="M 862 316 L 934 329" fill="none" stroke="var(--accent-2)" stroke-width="3" stroke-linecap="round" opacity="0.22"/>
  <path d="M 1058 316 L 986 329" fill="none" stroke="var(--accent-3)" stroke-width="3" stroke-linecap="round" opacity="0.22"/>
  <circle cx="960" cy="332" r="24" fill="var(--panel)" fill-opacity="0.94" stroke="var(--primary-text)" stroke-width="3"/>
  <path d="M 960 308 L 982 332 L 960 356 L 938 332 Z" fill="var(--primary-text)"/>
  <path d="M 350 334 L 382 384" fill="none" stroke="var(--muted-text)" stroke-width="3" stroke-linecap="round" opacity="0.7"/>
  <circle cx="382" cy="384" r="6" fill="var(--accent-1)"/>
  <g transform="translate(292, 414)" filter="url(#svg4465e9e1-soft-shadow)">
    <path d="M 46 0 L 74 -28 L 118 -28 Q 128 -28 132 -18 L 140 0 Z" fill="var(--panel)" fill-opacity="0.95" stroke="var(--accent-1)" stroke-width="3"/>
    <rect id="ITEM_1_BG" x="-185" y="0" width="370" height="344" rx="22" fill="var(--panel)" fill-opacity="0.96" stroke="var(--accent-1)" stroke-width="3"/>
    <rect x="-156" y="14" width="286" height="8" rx="4" fill="var(--accent-1)" fill-opacity="0.42"/>
    <path d="M 60 28 L 154 28 L 130 318 L 72 318 Z" fill="var(--accent-1)" fill-opacity="0.07"/>
    <circle id="ITEM_1_PAD" cx="0" cy="78" r="42" fill="var(--icon-pad-bg)" stroke="var(--accent-1)" opacity="1" fill-opacity="0.9" stroke-width="2" stroke-opacity="0.72" data-badge-layer="pad"/>
    <circle id="ITEM_1_PAD_INNER" cx="0" cy="78" r="32.76" fill="var(--accent-1)" fill-opacity="0.12" stroke="none" data-badge-layer="tint"/>
    <circle cx="0" cy="78" r="32" fill="none" stroke="var(--accent-1)" stroke-width="2.25" stroke-dasharray="5 4" opacity="0.82" display="none" data-suppressed-decoration="redundant-badge-ring"/>
    <g id="ITEM_1_ICON" transform="translate(-31, 46)" data-icon-size="62" stroke-linecap="round" stroke-linejoin="round" data-badge-treatment="clean">
      <g transform="translate(-4.5362711864406755,-4.536271186440676) scale(2.9613559322033898)" vector-effect="non-scaling-stroke" stroke-width="2.46" stroke-linecap="round" stroke-linejoin="round" stroke-opacity="1.0">
        <path d="M18 21a8 8 0 0 0-16 0" vector-effect="non-scaling-stroke" fill="none" stroke="#f1f5f9"/>
        <circle cx="10" cy="8" r="5" vector-effect="non-scaling-stroke" fill="none" stroke="#f1f5f9"/>
        <path d="M22 20c0-3.37-2-6.5-4-8a5 5 0 0 0-.45-8.3" vector-effect="non-scaling-stroke" fill="none" stroke="#f1f5f9"/>
      </g>
    </g>
    <text id="ITEM_1_HEAD" x="0.0" y="138.0" text-anchor="middle" font-size="38" font-weight="800" fill="var(--accent-1)" data-bg-id="ITEM_1_BG" data-max-lines="3" data-min-font-size="13" fill-opacity="1.0" stroke="none" style="font-size: 31px; font-family: 'Segoe UI Variable Display', 'Aptos Display', 'Inter', 'Segoe UI', Helvetica, Arial, sans-serif; font-weight: 700; font-kerning: normal; font-feature-settings: &quot;kern&quot; 1, &quot;liga&quot; 1; letter-spacing:-0.4px;" data-final-font-size="31">
      <tspan x="0.0" dy="41.52px">Attendance</tspan>
    </text>
    <rect id="ITEM_1_HEAD_FRAME" x="-152" y="138" width="304" height="66" fill="none"/>
    <text id="ITEM_1_BODY" x="0.0" y="204.0" text-anchor="middle" font-size="24" fill="var(--primary-text)" data-bg-id="ITEM_1_BG" style="font-size: 23px; font-family: 'Segoe UI Variable Text', 'Aptos', 'Inter', 'Segoe UI', Helvetica, Arial, sans-serif; font-weight: 400; font-kerning: normal; font-feature-settings: &quot;kern&quot; 1, &quot;liga&quot; 1;" data-final-font-size="23">
      <tspan x="0.0" dy="30.53px">Over 40,000 visitors</tspan>
      <tspan x="0.0" dy="26.45px">attended the milestone</tspan>
      <tspan x="0.0" dy="26.45px">anniversary</tspan>
    </text>
    <rect id="ITEM_1_BODY_FRAME" x="-162" y="204" width="324" height="140" fill="none"/>
  </g>
  <path d="M 852 336 L 812 356" fill="none" stroke="var(--muted-text)" stroke-width="3" stroke-linecap="round" opacity="0.7"/>
  <circle cx="812" cy="356" r="6" fill="var(--accent-2)"/>
  <g transform="translate(722, 386)" filter="url(#svg4465e9e1-soft-shadow)">
    <path d="M 46 0 L 74 -28 L 118 -28 Q 128 -28 132 -18 L 140 0 Z" fill="var(--panel)" fill-opacity="0.95" stroke="var(--accent-2)" stroke-width="3"/>
    <rect id="ITEM_2_BG" x="-185" y="0" width="370" height="344" rx="22" fill="var(--panel)" fill-opacity="0.96" stroke="var(--accent-2)" stroke-width="3"/>
    <rect x="-156" y="14" width="286" height="8" rx="4" fill="var(--accent-2)" fill-opacity="0.42"/>
    <path d="M 60 28 L 154 28 L 130 318 L 72 318 Z" fill="var(--accent-2)" fill-opacity="0.07"/>
    <circle id="ITEM_2_PAD" cx="0" cy="78" r="42" fill="var(--icon-pad-bg)" stroke="var(--accent-2)" opacity="1" fill-opacity="0.9" stroke-width="2" stroke-opacity="0.72" data-badge-layer="pad"/>
    <circle id="ITEM_2_PAD_INNER" cx="0" cy="78" r="32.76" fill="var(--accent-2)" fill-opacity="0.12" stroke="none" data-badge-layer="tint"/>
    <circle cx="0" cy="78" r="32" fill="none" stroke="var(--accent-2)" stroke-width="2.25" stroke-dasharray="5 4" opacity="0.82" display="none" data-suppressed-decoration="redundant-badge-ring"/>
    <g id="ITEM_2_ICON" transform="translate(-31, 46)" data-icon-size="62" stroke-linecap="round" stroke-linejoin="round" data-badge-treatment="clean">
      <g transform="translate(-6.147499999999997,-6.439999999999998) scale(2.34)">
        <path fill-rule="evenodd" clip-rule="evenodd" d="M17.44 3.385C17.77 3.765 18.33 3.835 18.74 3.545C19.54 2.975 20.58 3.835 20.17 4.715L17.75 7.485H13.88L11.44 4.685C11.03 3.795 12.07 2.935 12.87 3.505L12.94 3.555C13.35 3.845 13.91 3.765 14.23 3.385L15.1 2.345C15.48 1.885 16.19 1.885 16.57 2.345L17.44 3.385ZM4 21.2249C4 14.6849 9.3 9.38489 15.84 9.38489C22.38 9.38489 27.68 14.6849 27.67 21.2249C27.67 26.0549 23.75 29.9749 18.92 29.9749H12.75C7.92 29.9749 4 26.0549 4 21.2249Z" fill="#F3C07B"/>
        <path fill-rule="evenodd" clip-rule="evenodd" d="M14.12 7.46484H17.56C18.17 7.46484 18.67 7.96484 18.67 8.57484C18.67 9.18484 18.17 9.68484 17.56 9.68484H14.12C13.51 9.68484 13.01 9.18484 13.01 8.57484C13.01 7.96484 13.51 7.46484 14.12 7.46484ZM15.8401 19.3449H15.9101C17.4101 19.3849 18.6101 20.6049 18.6101 22.1049C18.6101 23.3849 17.7401 24.4549 16.5601 24.7749V25.8949C16.5601 26.2949 16.2401 26.6149 15.8401 26.6149C15.4401 26.6149 15.1201 26.2949 15.1201 25.8949V24.7749C13.9401 24.4549 13.0701 23.3849 13.0701 22.1049C13.0701 21.7049 13.3901 21.3849 13.7901 21.3849C14.1901 21.3849 14.5101 21.7049 14.5101 22.1049C14.5101 22.8449 15.1001 23.4349 15.8301 23.4349C16.5601 23.4349 17.1601 22.8349 17.1601 22.1049C17.1601 21.3749 16.5601 20.7749 15.8301 20.7749H15.7601C14.2701 20.7349 13.0701 19.5149 13.0701 18.0149C13.0701 16.7349 13.9401 15.6649 15.1201 15.3449V14.2249C15.1201 13.8249 15.4401 13.5049 15.8401 13.5049C16.2401 13.5049 16.5601 13.8249 16.5601 14.2249V15.3449C17.7401 15.6649 18.6101 16.7349 18.6101 18.0149C18.6101 18.4149 18.2901 18.7349 17.8901 18.7349C17.4901 18.7349 17.1701 18.4149 17.1701 18.0149C17.1701 17.2849 16.5701 16.6849 15.8401 16.6849C15.1101 16.6849 14.5101 17.2849 14.5101 18.0149C14.5101 18.7449 15.1101 19.3449 15.8401 19.3449Z" fill="#8C5543"/>
      </g>
    </g>
    <text id="ITEM_2_HEAD" x="0.0" y="138.0" text-anchor="middle" font-size="38" font-weight="800" fill="var(--accent-2)" data-bg-id="ITEM_2_BG" data-max-lines="3" data-min-font-size="13" fill-opacity="1.0" stroke="none" style="font-size: 31px; font-family: 'Segoe UI Variable Display', 'Aptos Display', 'Inter', 'Segoe UI', Helvetica, Arial, sans-serif; font-weight: 700; font-kerning: normal; font-feature-settings: &quot;kern&quot; 1, &quot;liga&quot; 1; letter-spacing:-0.4px;" data-final-font-size="31">
      <tspan x="0.0" dy="41.52px">Economic Impact</tspan>
    </text>
    <rect id="ITEM_2_HEAD_FRAME" x="-152" y="138" width="304" height="66" fill="none"/>
    <text id="ITEM_2_BODY" x="0.0" y="204.0" text-anchor="middle" font-size="24" fill="var(--primary-text)" data-bg-id="ITEM_2_BG" style="font-size: 23px; font-family: 'Segoe UI Variable Text', 'Aptos', 'Inter', 'Segoe UI', Helvetica, Arial, sans-serif; font-weight: 400; font-kerning: normal; font-feature-settings: &quot;kern&quot; 1, &quot;liga&quot; 1;" data-final-font-size="23">
      <tspan x="0.0" dy="35.82px">Direct economic impact</tspan>
      <tspan x="0.0" dy="26.45px">reached $2.19 million</tspan>
    </text>
    <rect id="ITEM_2_BODY_FRAME" x="-162" y="204" width="324" height="140" fill="none"/>
  </g>
  <path d="M 1068 336 L 1108 356" fill="none" stroke="var(--muted-text)" stroke-width="3" stroke-linecap="round" opacity="0.7"/>
  <circle cx="1108" cy="356" r="6" fill="var(--accent-3)"/>
  <g transform="translate(1198, 386)" filter="url(#svg4465e9e1-soft-shadow)">
    <path d="M -46 0 L -74 -28 L -118 -28 Q -128 -28 -132 -18 L -140 0 Z" fill="var(--panel)" fill-opacity="0.95" stroke="var(--accent-3)" stroke-width="3"/>
    <rect id="ITEM_3_BG" x="-185" y="0" width="370" height="344" rx="22" fill="var(--panel)" fill-opacity="0.96" stroke="var(--accent-3)" stroke-width="3"/>
    <rect x="-130" y="14" width="286" height="8" rx="4" fill="var(--accent-3)" fill-opacity="0.42"/>
    <path d="M -60 28 L -154 28 L -130 318 L -72 318 Z" fill="var(--accent-3)" fill-opacity="0.07"/>
    <circle id="ITEM_3_PAD" cx="0" cy="78" r="42" fill="var(--icon-pad-bg)" stroke="var(--accent-3)" opacity="1" fill-opacity="0.9" stroke-width="2" stroke-opacity="0.72" data-badge-layer="pad"/>
    <circle id="ITEM_3_PAD_INNER" cx="0" cy="78" r="32.76" fill="var(--accent-3)" fill-opacity="0.12" stroke="none" data-badge-layer="tint"/>
    <circle cx="0" cy="78" r="32" fill="none" stroke="var(--accent-3)" stroke-width="2.25" stroke-dasharray="5 4" opacity="0.82" display="none" data-suppressed-decoration="redundant-badge-ring"/>
    <g id="ITEM_3_ICON" transform="translate(-31, 46)" data-icon-size="62" stroke-linecap="round" stroke-linejoin="round" data-badge-treatment="clean">
      <g transform="translate(-4.738181818181815,-3.925950413223138) scale(1.7327603305785122)">
        <path d="m23.97,2.96c0-.01-.01-.01-.02-.02l-2.63,2.28c-.41-.67-1.2-.9-1.84-.49-.68.44-.92,1.43-.54,2.21.16.33.4.57.69.7l-1.05,1.85-.01.02-.03-.03-.33.59c.41-.1.82-.11,1.21.02.52.19.95.44,1.3.73l.44-.78c.83-.09,1.65-.42,2.33-1,1.81-1.55,2.03-4.27.48-6.08Zm-.17,3.47c-.21,0-.38-.3-.38-.67s.17-.68.38-.68.39.31.39.68-.17.67-.39.67Z" fill="#ffc84d"/>
        <path d="m13.4,21.18c.1.35.13.72.07,1.11-.23,1.41-1.56,2.37-2.97,2.14s-2.37-1.56-2.14-2.97c.08-.49.3-.92.6-1.27l-.01-.01,3.87-5.08,2.95,2.97-2.37,3.11Z" fill="#ffc84d"/>
        <path d="m31.01,17.36c-.13.82-.69,1.47-1.41,1.77l-2.42,1.7c-1.37.97-3.25.75-4.36-.51l-.57-.62v-5.53l2.62,2.85c.27.31.74.37,1.08.13l.46-.33c0-.06,0-.13.01-.2.2-1.27,1.4-2.13,2.66-1.93,1.27.21,2.13,1.4,1.93,2.67Z" fill="#ffc84d"/>
        <path d="m28.771,32.224h0l-6.534-10.349h-6.523v-.045s-5.76,9.162-5.76,9.162l4.3,2.887v.003s4.192-6.666,4.192-6.666c.24-.382.796-.382,1.036,0l4.985,7.896-.19-.31,4.493-2.577Z" fill="#3e5af4"/>
        <path d="m22.237,21.875h.015v-7.871s-.019-1.938-1.531-3.187c-.349-.288-.777-.54-1.304-.722-.389-.135-.797-.126-1.211-.029-2.575.605-5.394,5.019-5.394,5.019l.011.011,2.947,2.97h0l-.055,3.764v.045s6.522,0,6.522,0Z" fill="#8595aa"/>
        <path d="m33.424,33.947l-.28-.457c-.416-.679-1.149-1.098-1.945-1.112l-2.428-.153h0l-4.493,2.577.19.31,1.929,3.146c.123.2.384.263.585.14l6.303-3.865c.2-.123.263-.385.14-.585Z" fill="#4e5968"/>
        <path d="m9.954,30.992h0s-2.16,3.43-2.16,3.43c-.125.199-.065.461.133.586l6.257,3.939c.199.125.461.065.586-.133l.286-.454c.424-.674.475-1.517.136-2.237l-.936-2.241v-.003s-4.301-2.887-4.301-2.887Z" fill="#4e5968"/>
        <path d="m18.575,9.492l1.051-1.849c-.282-.136-.53-.37-.69-.701-.38-.784-.136-1.774.546-2.211.637-.409,1.426-.183,1.837.488l2.628-2.284.003-.002c-.05-.058-.114-.1-.167-.154-.154-.159-.309-.316-.484-.449-.074-.056-.156-.096-.232-.147-.17-.113-.341-.223-.525-.31-.095-.045-.195-.074-.292-.112-.174-.068-.349-.132-.53-.176-.113-.028-.227-.042-.342-.06-.175-.028-.35-.05-.529-.057-.052-.002-.102-.017-.154-.017-.076,0-.147.019-.222.023-.158.008-.315.023-.469.048-.122.02-.241.046-.36.076-.159.041-.315.088-.467.147-.104.04-.204.083-.303.13-.159.075-.313.158-.461.252-.086.055-.168.113-.25.173-.148.109-.292.225-.425.352-.066.063-.127.13-.19.198-.13.14-.254.285-.364.441-.05.071-.093.146-.14.221-.097.157-.189.318-.265.487-.044.097-.078.198-.115.298-.057.154-.109.31-.147.471-.029.12-.046.242-.065.366-.023.153-.041.308-.047.466-.002.055-.016.106-.016.162,0,.126.014.25.025.374.004.049.004.1.01.149.029.239.081.473.149.701.019.065.044.129.067.193.066.188.144.37.234.546.026.051.049.104.077.154.122.216.266.42.424.612.039.048.082.094.123.14.151.169.314.327.492.472.028.023.052.048.081.07.147.113.302.216.465.311.011.006.021.015.032.021l.008-.013Z" fill="#ff9000"/>
        <path d="m23.804,6.431c.211,0,.382-.302.382-.674,0-.372-.172-.673-.383-.673-.211,0-.382.302-.382.674,0,.372.172.673.383.673Z"/>
      </g>
    </g>
    <text id="ITEM_3_HEAD" x="0.0" y="138.0" text-anchor="middle" font-size="38" font-weight="800" fill="var(--accent-3)" data-bg-id="ITEM_3_BG" data-max-lines="3" data-min-font-size="13" fill-opacity="1.0" stroke="none" style="font-size: 31px; font-family: 'Segoe UI Variable Display', 'Aptos Display', 'Inter', 'Segoe UI', Helvetica, Arial, sans-serif; font-weight: 700; font-kerning: normal; font-feature-settings: &quot;kern&quot; 1, &quot;liga&quot; 1; letter-spacing:-0.4px;" data-final-font-size="31">
      <tspan x="0.0" dy="41.52px">Attendance</tspan>
    </text>
    <rect id="ITEM_3_HEAD_FRAME" x="-152" y="138" width="304" height="66" fill="none"/>
    <text id="ITEM_3_BODY" x="0.0" y="204.0" text-anchor="middle" font-size="24" fill="var(--primary-text)" data-bg-id="ITEM_3_BG" style="font-size: 23px; font-family: 'Segoe UI Variable Text', 'Aptos', 'Inter', 'Segoe UI', Helvetica, Arial, sans-serif; font-weight: 400; font-kerning: normal; font-feature-settings: &quot;kern&quot; 1, &quot;liga&quot; 1;" data-final-font-size="23">
      <tspan x="0.0" dy="35.82px">Approximately 3,370 visitors</tspan>
      <tspan x="0.0" dy="26.45px">attended the festival</tspan>
    </text>
    <rect id="ITEM_3_BODY_FRAME" x="-162" y="204" width="324" height="140" fill="none"/>
  </g>
  <path d="M 1570 334 L 1538 384" fill="none" stroke="var(--muted-text)" stroke-width="3" stroke-linecap="round" opacity="0.7"/>
  <circle cx="1538" cy="384" r="6" fill="var(--accent-4)"/>
  <g transform="translate(1628, 414)" filter="url(#svg4465e9e1-soft-shadow)">
    <path d="M -46 0 L -74 -28 L -118 -28 Q -128 -28 -132 -18 L -140 0 Z" fill="var(--panel)" fill-opacity="0.95" stroke="var(--accent-4)" stroke-width="3"/>
    <rect id="ITEM_4_BG" x="-185" y="0" width="370" height="344" rx="22" fill="var(--panel)" fill-opacity="0.96" stroke="var(--accent-4)" stroke-width="3"/>
    <rect x="-130" y="14" width="286" height="8" rx="4" fill="var(--accent-4)" fill-opacity="0.42"/>
    <path d="M -60 28 L -154 28 L -130 318 L -72 318 Z" fill="var(--accent-4)" fill-opacity="0.07"/>
    <circle id="ITEM_4_PAD" cx="0" cy="78" r="42" fill="var(--icon-pad-bg)" stroke="var(--accent-1)" opacity="1" fill-opacity="0.9" stroke-width="2" stroke-opacity="0.72" data-badge-layer="pad"/>
    <circle id="ITEM_4_PAD_INNER" cx="0" cy="78" r="32.76" fill="var(--accent-1)" fill-opacity="0.12" stroke="none" data-badge-layer="tint"/>
    <circle cx="0" cy="78" r="32" fill="none" stroke="var(--accent-4)" stroke-width="2.25" stroke-dasharray="5 4" opacity="0.82" display="none" data-suppressed-decoration="redundant-badge-ring"/>
    <g id="ITEM_4_ICON" transform="translate(-31, 46)" data-icon-size="62" stroke-linecap="round" stroke-linejoin="round" data-badge-treatment="clean">
      <g transform="translate(-9.319999999999999,-9.320000000000002) scale(0.315)" vector-effect="non-scaling-stroke" stroke-width="2.46" stroke-linecap="round" stroke-linejoin="round" stroke-opacity="1.0">
        <polyline points="48 139.59 48 216 208 216 208 139.59" fill="none" stroke="#f1f5f9" vector-effect="non-scaling-stroke"/>
        <path d="M54,40H202a8,8,0,0,1,7.69,5.8L224,96H32L46.34,45.8A8,8,0,0,1,54,40Z" fill="none" stroke="#f1f5f9" vector-effect="non-scaling-stroke"/>
        <path d="M96,96v16a32,32,0,0,1-64,0V96" fill="none" stroke="#f1f5f9" vector-effect="non-scaling-stroke"/>
        <path d="M160,96v16a32,32,0,0,1-64,0V96" fill="none" stroke="#f1f5f9" vector-effect="non-scaling-stroke"/>
        <path d="M224,96v16a32,32,0,0,1-64,0V96" fill="none" stroke="#f1f5f9" vector-effect="non-scaling-stroke"/>
      </g>
    </g>
    <text id="ITEM_4_HEAD" x="0.0" y="138.0" text-anchor="middle" font-size="38" font-weight="800" fill="var(--accent-1)" data-bg-id="ITEM_4_BG" data-max-lines="3" data-min-font-size="13" fill-opacity="1.0" stroke="none" style="font-size: 31px; font-family: 'Segoe UI Variable Display', 'Aptos Display', 'Inter', 'Segoe UI', Helvetica, Arial, sans-serif; font-weight: 700; font-kerning: normal; font-feature-settings: &quot;kern&quot; 1, &quot;liga&quot; 1; letter-spacing:-0.4px;" data-final-font-size="31">
      <tspan x="0.0" dy="41.52px">Economic Impact</tspan>
    </text>
    <rect id="ITEM_4_HEAD_FRAME" x="-152" y="138" width="304" height="66" fill="none"/>
    <text id="ITEM_4_BODY" x="0.0" y="204.0" text-anchor="middle" font-size="24" fill="var(--primary-text)" data-bg-id="ITEM_4_BG" style="font-size: 23px; font-family: 'Segoe UI Variable Text', 'Aptos', 'Inter', 'Segoe UI', Helvetica, Arial, sans-serif; font-weight: 400; font-kerning: normal; font-feature-settings: &quot;kern&quot; 1, &quot;liga&quot; 1;" data-final-font-size="23">
      <tspan x="0.0" dy="35.82px">Direct economic impact</tspan>
      <tspan x="0.0" dy="26.45px">totaled $510,000</tspan>
    </text>
    <rect id="ITEM_4_BODY_FRAME" x="-162" y="204" width="324" height="140" fill="none"/>
  </g>
  <text id="SOURCE_NOTE" x="134.0" y="1058.0" fill="var(--muted-text)" opacity="1" style="font-family: var(--font-family); font-size: 20px;">Source: UFO Festival Report 2022</text>
</svg>
