<?xml version='1.0' encoding='utf-8'?>
<svg xmlns="http://www.w3.org/2000/svg" width="1920" height="1080" viewBox="0 0 1920 1080" data-theme="dark" data-semantic-intent="uncertain_compare" data-relation-type="hypothesis_comparison" data-site-visual-identity="heritage-amber">
  <style>
        @font-face {
            font-family: 'Inter';
            src: url('assets/fonts/Inter-Regular.ttf') format('truetype');
            font-weight: 400;
            font-style: normal;
            font-display: swap;
        }
        @font-face {
            font-family: 'Inter';
            src: url('assets/fonts/Inter-Bold.ttf') format('truetype');
            font-weight: 600;
            font-style: normal;
            font-display: swap;
        }
        @font-face {
            font-family: 'Inter';
            src: url('assets/fonts/Inter-Bold.ttf') format('truetype');
            font-weight: 800;
            font-style: normal;
            font-display: swap;
        }
        
:root {
    --background: #0f172a;
    --panel: #1e293b;
    --primary-text: #f1f5f9;
    --muted-text: #94a3b8;
    --inverse-text: #0f172a;
    --border: #334155;
    --shadow-color: #000000;
    --icon-pad-bg: #1e293b;
    --art-glow: #7dd3fc;
    --art-glow-opacity: 0.18;
    --art-sheen: #ffffff;
    --art-sheen-opacity: 0.18;
    --art-shadow: #000000;
    --art-shadow-opacity: 0.28;
    --art-muted-line: #64748b;
    --art-panel-tint: #1e293b;
    --semantic-risk: #f87171;
    --semantic-warning: #fb923c;
    --semantic-uncertain: #fbbf24;
    --semantic-evidence: #60a5fa;
    --semantic-claim: #c084fc;
    --semantic-positive: #4ade80;
    --semantic-outcome: #22d3ee;
    --font-family: 'Inter', 'Segoe UI', 'Kalam', Roboto, Helvetica, Arial, sans-serif;
    --radius-xl: 16px;
    --font-family-headline: 'Segoe UI Variable Display', 'Aptos Display', 'Inter', 'Segoe UI', Helvetica, Arial, sans-serif;
    --font-family-body: 'Segoe UI Variable Text', 'Aptos', 'Inter', 'Segoe UI', Helvetica, Arial, sans-serif;
    --font-heading: var(--font-family-headline);
    --font-body: var(--font-family-body);
    --font-size-h1: 64px;
    --font-size-h2: 42px;
    --font-size-h3: 29px;
    --font-size-body: 21px;
    --font-size-caption: 17px;
    --secondary-text: var(--muted-text);
    --panel-border: var(--border);
    --font-weight-normal: 400;
    --font-weight-medium: 500;
    --font-weight-semibold: 600;
    --font-weight-bold: 700;
    --spacing-gutter-pct: 0.07;
    --spacing-top-pct: 0.15;
    --spacing-bottom-pct: 0.07;
    --spacing-title-y-pct: 0.055;
    --accent-1: #fbbf24;
    --accent-2: #fb923c;
    --accent-3: #f59e0b;
    --accent-4: #fca5a5;
    --accent-5: #d6a66f;
    --accent-6: #7dd3fc;
}
:root[data-theme="dark"] {
    --background: #0f172a;
    --panel: #1e293b;
    --primary-text: #f1f5f9;
    --muted-text: #94a3b8;
    --inverse-text: #0f172a;
    --border: #334155;
    --shadow-color: #000000;
    --icon-pad-bg: #1e293b;
    --art-glow: #7dd3fc;
    --art-glow-opacity: 0.18;
    --art-sheen: #ffffff;
    --art-sheen-opacity: 0.18;
    --art-shadow: #000000;
    --art-shadow-opacity: 0.28;
    --art-muted-line: #64748b;
    --art-panel-tint: #1e293b;
    --semantic-risk: #f87171;
    --semantic-warning: #fb923c;
    --semantic-uncertain: #fbbf24;
    --semantic-evidence: #60a5fa;
    --semantic-claim: #c084fc;
    --semantic-positive: #4ade80;
    --semantic-outcome: #22d3ee;
    --accent-1: #fbbf24;
    --accent-2: #fb923c;
    --accent-3: #f59e0b;
    --accent-4: #fca5a5;
    --accent-5: #d6a66f;
    --accent-6: #7dd3fc;
}
:root[data-theme="light"] {
    --background: #f8fafc;
    --panel: #ffffff;
    --primary-text: #0f172a;
    --muted-text: #64748b;
    --inverse-text: #ffffff;
    --border: #e2e8f0;
    --shadow-color: #000000;
    --icon-pad-bg: #1e293b;
    --art-glow: #0891b2;
    --art-glow-opacity: 0.10;
    --art-sheen: #ffffff;
    --art-sheen-opacity: 0.34;
    --art-shadow: #0f172a;
    --art-shadow-opacity: 0.14;
    --art-muted-line: #94a3b8;
    --art-panel-tint: #f1f5f9;
    --semantic-risk: #b91c1c;
    --semantic-warning: #c2410c;
    --semantic-uncertain: #a16207;
    --semantic-evidence: #1d4ed8;
    --semantic-claim: #6d28d9;
    --semantic-positive: #15803d;
    --semantic-outcome: #0e7490;
    --accent-1: #a16207;
    --accent-2: #c2410c;
    --accent-3: #b45309;
    --accent-4: #b91c1c;
    --accent-5: #92400e;
    --accent-6: #0369a1;
}</style>
  <rect x="0" y="0" width="1.92E+3" height="1.08E+3" fill="#0f172a" stroke="none" id="programmatic_background"/>
  <line id="HEADER_DECOR" x1="960.0" x2="1080.0" y1="125.0" y2="125.0" stroke="var(--accent-1)" stroke-width="6" stroke-linecap="round"/>
  <defs>
    <pattern id="svg7f3c5608-napkin-hatch" patternUnits="userSpaceOnUse" width="12" height="12">
      <path d="M -3 12 L 12 -3 M 0 15 L 15 0" fill="none" stroke="var(--primary-text)" stroke-width="1" stroke-opacity="0.05"/>
    </pattern>
    <filter id="svg7f3c5608-soft-shadow" x="-30%" y="-30%" width="160%" height="160%">
      <feDropShadow dx="0" dy="4" stdDeviation="10" flood-color="#000000" flood-opacity="0.2"/>
    </filter>
    <radialGradient id="svg7f3c5608-universal-edge-vignette" cx="50%" cy="50%" r="72%">
      <stop offset="0%" stop-color="var(--background)" stop-opacity="0"/>
      <stop offset="72%" stop-color="var(--background)" stop-opacity="0.12"/>
      <stop offset="100%" stop-color="var(--primary-text)" stop-opacity="0.08"/>
    </radialGradient>
    <linearGradient id="svg7f3c5608-universal-surface-sheen" x1="0%" y1="0%" x2="100%" y2="100%">
      <stop offset="0%" stop-color="var(--art-sheen)" stop-opacity="var(--art-sheen-opacity)"/>
      <stop offset="46%" stop-color="var(--art-sheen)" stop-opacity="0.035"/>
      <stop offset="100%" stop-color="var(--art-panel-tint)" stop-opacity="0.14"/>
    </linearGradient>
    <radialGradient id="svg7f3c5608-universal-icon-aura" cx="50%" cy="42%" r="64%">
      <stop offset="0%" stop-color="var(--art-glow)" stop-opacity="var(--art-glow-opacity)"/>
      <stop offset="100%" stop-color="var(--background)" stop-opacity="0"/>
    </radialGradient>
    <linearGradient id="svg7f3c5608-comparison-card-depth" x1="0%" y1="0%" x2="0%" y2="100%">
      <stop offset="0%" stop-color="var(--art-sheen)" stop-opacity="0.30"/>
      <stop offset="55%" stop-color="var(--art-sheen)" stop-opacity="0.035"/>
      <stop offset="100%" stop-color="var(--art-shadow)" stop-opacity="0.10"/>
    </linearGradient>
    <filter id="svg7f3c5608-text-glow" x="-20%" y="-20%" width="140%" height="140%">
      <feDropShadow dx="0" dy="0" stdDeviation="2" flood-color="#000000" flood-opacity="0.4"/>
    </filter>
    <filter id="svg7f3c5608-shadow" x="-30%" y="-30%" width="160%" height="160%">
      <feDropShadow dx="0" dy="2" stdDeviation="3" flood-color="#000000" flood-opacity="0.08"/>
      <feDropShadow dx="0" dy="6" stdDeviation="10" flood-color="#000000" flood-opacity="0.12"/>
    </filter>
    <marker id="svg7f3c5608-arrowhead" markerWidth="10" markerHeight="7" refX="9" refY="3.5" orient="auto" markerUnits="strokeWidth">
      <polygon points="0 0, 10 3.5, 0 7" fill="var(--muted-text)" opacity="0.6"/>
    </marker>
  </defs>
  <rect id="CANVAS_BG" width="100%" height="100%" fill="var(--background)"/>
  <rect width="100%" height="100%" fill="url(#svg7f3c5608-napkin-hatch)"/>
  <rect id="UNIVERSAL_EDGE_VIGNETTE" width="100%" height="100%" fill="url(#svg7f3c5608-universal-edge-vignette)" opacity="0.62"/>
  <text id="TITLE" x="960.0" y="59" text-anchor="middle" font-size="60" font-weight="800" fill="#f1f5f9" style="font-size: 69px; font-family: 'Segoe UI Variable Display', 'Aptos Display', 'Inter', 'Segoe UI', Helvetica, Arial, sans-serif; font-weight: 800; font-kerning: normal; font-feature-settings: &quot;kern&quot; 1, &quot;liga&quot; 1; letter-spacing:-1.2px;" data-final-font-size="69">
    <tspan x="960.0" dy="70.47px">Atmospheric Sound Ducting Mechanics</tspan>
  </text>
  <rect id="TITLE_FRAME" x="134" y="59" width="1652" height="103" fill="none"/>
  <rect x="110" y="180" width="1700" height="770" rx="38" fill="var(--panel)" fill-opacity="0.28" stroke="var(--muted-text)" stroke-width="2" opacity="0.92"/>
  <line x1="960" y1="225" x2="960" y2="545" stroke="var(--muted-text)" stroke-width="4" stroke-dasharray="10 10" opacity="0.35"/>
  <rect x="878" y="370" width="164" height="34" rx="17" fill="var(--background)" stroke="var(--muted-text)" stroke-width="2" opacity="0.9"/>
  <text x="960" y="394" text-anchor="middle" font-size="20" font-weight="700" fill="var(--primary-text)">Tradeoffs</text>
  <g filter="url(#svg7f3c5608-soft-shadow)">
    <rect id="ITEM_1_BG" x="150" y="230" width="700" height="300" rx="30" fill="var(--panel)" fill-opacity="0.97" stroke="var(--accent-1)" stroke-width="3"/>
    <rect x="150" y="230" width="700" height="18" rx="9" fill="var(--accent-1)" fill-opacity="0.55"/>
    <rect x="392" y="258" width="380" height="34" rx="17" fill="var(--accent-1)" fill-opacity="0.12"/>
    <circle id="ITEM_1_PAD" cx="250" cy="322" r="52" fill="var(--icon-pad-bg)" opacity="1" fill-opacity="0.9" stroke-width="2" stroke="var(--semantic-uncertain)" stroke-opacity="0.72" data-badge-layer="pad"/>
    <circle id="ITEM_1_PAD_INNER" cx="250" cy="322" r="40.56" fill="var(--semantic-uncertain)" fill-opacity="0.12" stroke="none" data-badge-layer="tint"/>
    <circle cx="250" cy="322" r="42" fill="none" stroke="var(--accent-1)" stroke-width="3" stroke-dasharray="6 4" display="none" data-suppressed-decoration="redundant-badge-ring"/>
    <g id="ITEM_1_ICON" transform="translate(212, 284)" data-icon-size="76" stroke-linecap="round" stroke-linejoin="round" data-badge-treatment="clean">
      <g transform="translate(-8.354285714285716,-8.354285714285716) scale(2.8971428571428572)">
        <path d="M21.74 16.08L8.83 3.17C7.27 1.61 4.74 1.61 3.17 3.17C1.61 4.73 1.61 7.26 3.17 8.83L16.08 21.74C15.69 23.92 16.34 26.24 18.02 27.92C20.75 30.65 25.19 30.65 27.92 27.92C30.65 25.19 30.65 20.75 27.92 18.02C26.24 16.34 23.92 15.7 21.74 16.08Z" fill="#F4F4F4"/>
        <path d="M4.59 7.42002C3.81 6.64002 3.81 5.37 4.59 4.59C5.37 3.81 6.63 3.81 7.42 4.59L21.1439 18.3139C21.7096 18.0919 22.3255 17.97 22.97 17.97C25.7314 17.97 27.97 20.2085 27.97 22.97C27.97 25.7314 25.7314 27.97 22.97 27.97C20.2085 27.97 17.97 25.7314 17.97 22.97C17.97 22.3255 18.0919 21.7096 18.3139 21.1439L4.59 7.42002Z" fill="#F8312F"/>
        <path d="M10.23 4.59998L8.11 6.71997C7.72 7.10997 7.72 7.74997 8.11 8.12997C8.5 8.51997 9.13 8.51997 9.52 8.12997L11.64 6.00998L10.23 4.59998ZM12.35 10.97L14.47 8.84998L15.88 10.26L13.76 12.38C13.37 12.77 12.74 12.77 12.35 12.38C11.96 11.99 11.96 11.36 12.35 10.97ZM16.59 15.21L18.71 13.09L20.12 14.5L18 16.62C17.61 17.01 16.98 17.01 16.59 16.62C16.2 16.23 16.2 15.6 16.59 15.21Z" fill="black"/>
        <path d="M24.97 23.97C26.0745 23.97 26.97 23.0745 26.97 21.97C26.97 20.8654 26.0745 19.97 24.97 19.97C23.8654 19.97 22.97 20.8654 22.97 21.97C22.97 23.0745 23.8654 23.97 24.97 23.97Z" fill="#FF8687"/>
      </g>
    </g>
    <rect id="ITEM_1_TEXT_BG" x="330.0" y="266.0" width="468.0" height="226.0" rx="22" fill="var(--panel)" fill-opacity="0.94" stroke="var(--primary-text)" stroke-opacity="0.12" stroke-width="1.5"/>
    <rect id="COMPARISON_COLUMNS_ART_PANEL_SHEEN_1" x="330.0" y="266.0" width="468.0" height="226.0" rx="16" fill="var(--semantic-uncertain)" opacity="0.82" fill-opacity="0.15" stroke="none"/>
    <text id="ITEM_1_HEAD" x="564.0" y="282.0" text-anchor="middle" font-size="32" font-weight="800" fill="var(--primary-text)" data-bg-id="ITEM_1_TEXT_BG" fill-opacity="1.0" stroke="none" style="font-size: 31px; font-family: 'Segoe UI Variable Display', 'Aptos Display', 'Inter', 'Segoe UI', Helvetica, Arial, sans-serif; font-weight: 700; font-kerning: normal; font-feature-settings: &quot;kern&quot; 1, &quot;liga&quot; 1; letter-spacing:-0.4px;" data-final-font-size="31">
      <tspan x="564.0" dy="40.77px">Temperature Effects</tspan>
    </text>
    <rect id="ITEM_1_HEAD_FRAME" x="364" y="282" width="400" height="52" fill="none"/>
    <text id="ITEM_1_BODY" x="564.0" y="340.0" text-anchor="middle" font-size="19" fill="var(--primary-text)" data-bg-id="ITEM_1_TEXT_BG" style="font-size: 23px; font-family: 'Segoe UI Variable Text', 'Aptos', 'Inter', 'Segoe UI', Helvetica, Arial, sans-serif; font-weight: 400; font-kerning: normal; font-feature-settings: &quot;kern&quot; 1, &quot;liga&quot; 1;" data-final-font-size="23">
      <tspan x="564.0" dy="41.55px">Varying heat levels bend waves away</tspan>
      <tspan x="564.0" dy="26.45px">from straight paths</tspan>
    </text>
    <rect id="ITEM_1_BODY_FRAME" x="350" y="340" width="428" height="136" fill="none"/>
  </g>
  <g filter="url(#svg7f3c5608-soft-shadow)">
    <rect id="ITEM_2_BG" x="1070" y="230" width="700" height="300" rx="30" fill="var(--panel)" fill-opacity="0.97" stroke="var(--accent-2)" stroke-width="3"/>
    <rect x="1070" y="230" width="700" height="18" rx="9" fill="var(--accent-2)" fill-opacity="0.55"/>
    <rect x="1312" y="258" width="380" height="34" rx="17" fill="var(--accent-2)" fill-opacity="0.12"/>
    <circle id="ITEM_2_PAD" cx="1170" cy="322" r="52" fill="var(--icon-pad-bg)" opacity="1" fill-opacity="0.9" stroke-width="2" stroke="var(--semantic-uncertain)" stroke-opacity="0.72" data-badge-layer="pad"/>
    <circle id="ITEM_2_PAD_INNER" cx="1170" cy="322" r="40.56" fill="var(--semantic-uncertain)" fill-opacity="0.12" stroke="none" data-badge-layer="tint"/>
    <circle cx="1170" cy="322" r="42" fill="none" stroke="var(--accent-2)" stroke-width="3" stroke-dasharray="6 4" display="none" data-suppressed-decoration="redundant-badge-ring"/>
    <g id="ITEM_2_ICON" transform="translate(1132, 284)" data-icon-size="76" stroke-linecap="round" stroke-linejoin="round" data-badge-treatment="clean">
      <g transform="translate(-5.997288135593223,-5.997288135593227) scale(3.666440677966102)" vector-effect="non-scaling-stroke" stroke-width="2.62" stroke-linecap="round" stroke-linejoin="round" stroke-opacity="1.0">
        <path d="M12.8 19.6A2 2 0 1 0 14 16H2" vector-effect="non-scaling-stroke" fill="none" stroke="#f1f5f9"/>
        <path d="M17.5 8a2.5 2.5 0 1 1 2 4H2" vector-effect="non-scaling-stroke" fill="none" stroke="#f1f5f9"/>
        <path d="M9.8 4.4A2 2 0 1 1 11 8H2" vector-effect="non-scaling-stroke" fill="none" stroke="#f1f5f9"/>
      </g>
    </g>
    <rect id="ITEM_2_TEXT_BG" x="1250.0" y="266.0" width="468.0" height="226.0" rx="22" fill="var(--panel)" fill-opacity="0.94" stroke="var(--primary-text)" stroke-opacity="0.12" stroke-width="1.5"/>
    <rect id="COMPARISON_COLUMNS_ART_PANEL_SHEEN_2" x="1250.0" y="266.0" width="468.0" height="226.0" rx="16" fill="var(--semantic-uncertain)" opacity="0.82" fill-opacity="0.15" stroke="none"/>
    <text id="ITEM_2_HEAD" x="1484.0" y="282.0" text-anchor="middle" font-size="32" font-weight="800" fill="var(--primary-text)" data-bg-id="ITEM_2_TEXT_BG" fill-opacity="1.0" stroke="none" style="font-size: 31px; font-family: 'Segoe UI Variable Display', 'Aptos Display', 'Inter', 'Segoe UI', Helvetica, Arial, sans-serif; font-weight: 700; font-kerning: normal; font-feature-settings: &quot;kern&quot; 1, &quot;liga&quot; 1; letter-spacing:-0.4px;" data-final-font-size="31">
      <tspan x="1484.0" dy="40.77px">Wind Velocity</tspan>
    </text>
    <rect id="ITEM_2_HEAD_FRAME" x="1284" y="282" width="400" height="52" fill="none"/>
    <text id="ITEM_2_BODY" x="1484.0" y="340.0" text-anchor="middle" font-size="19" fill="var(--primary-text)" data-bg-id="ITEM_2_TEXT_BG" style="font-size: 23px; font-family: 'Segoe UI Variable Text', 'Aptos', 'Inter', 'Segoe UI', Helvetica, Arial, sans-serif; font-weight: 400; font-kerning: normal; font-feature-settings: &quot;kern&quot; 1, &quot;liga&quot; 1;" data-final-font-size="23">
      <tspan x="1484.0" dy="41.55px">Air currents increase or decrease</tspan>
      <tspan x="1484.0" dy="26.45px">sound travel speeds</tspan>
    </text>
    <rect id="ITEM_2_BODY_FRAME" x="1270" y="340" width="428" height="136" fill="none"/>
  </g>
  <g filter="url(#svg7f3c5608-soft-shadow)">
    <rect id="ITEM_3_BG" x="150" y="610" width="470" height="270" rx="26" fill="var(--panel)" fill-opacity="0.97" stroke="var(--accent-3)" stroke-width="3"/>
    <rect x="150" y="610" width="470" height="16" rx="8" fill="var(--accent-3)" fill-opacity="0.55"/>
    <rect x="280" y="646" width="260" height="26" rx="13" fill="var(--accent-3)" fill-opacity="0.12"/>
    <circle id="ITEM_3_PAD" cx="228" cy="692" r="46" fill="var(--icon-pad-bg)" opacity="1" fill-opacity="0.9" stroke-width="2" stroke="var(--semantic-uncertain)" stroke-opacity="0.72" data-badge-layer="pad"/>
    <circle id="ITEM_3_PAD_INNER" cx="228" cy="692" r="35.88" fill="var(--semantic-uncertain)" fill-opacity="0.12" stroke="none" data-badge-layer="tint"/>
    <circle cx="228" cy="692" r="37" fill="none" stroke="var(--accent-3)" stroke-width="3" stroke-dasharray="6 4" display="none" data-suppressed-decoration="redundant-badge-ring"/>
    <g id="ITEM_3_ICON" transform="translate(194, 658)" data-icon-size="68" stroke-linecap="round" stroke-linejoin="round" data-badge-treatment="clean">
      <g transform="translate(-8.23044247787611,-3.1500884955752255) scale(3.386902654867257)" vector-effect="non-scaling-stroke" stroke-width="2.53" stroke-linecap="round" stroke-linejoin="round" stroke-opacity="1.0">
        <path d="M3 11v6h2l1 -1.5l3 1.5h10a3 3 0 0 0 0 -6h-10h0l-3 1.5l-1 -1.5h-2z" vector-effect="non-scaling-stroke" fill="none" stroke="#f1f5f9"/>
        <path d="M17 11l-1 -3h-5l-1 3" vector-effect="non-scaling-stroke" fill="none" stroke="#f1f5f9"/>
        <path d="M13 8v-2a1 1 0 0 1 1 -1h1" vector-effect="non-scaling-stroke" fill="none" stroke="#f1f5f9"/>
      </g>
    </g>
    <rect id="ITEM_3_TEXT_BG" x="294.0" y="674.0" width="300.0" height="188.0" rx="22" fill="var(--panel)" fill-opacity="0.94" stroke="var(--primary-text)" stroke-opacity="0.12" stroke-width="1.5"/>
    <rect id="COMPARISON_COLUMNS_ART_PANEL_SHEEN_3" x="294.0" y="674.0" width="300.0" height="188.0" rx="16" fill="var(--semantic-uncertain)" opacity="0.82" fill-opacity="0.15" stroke="none"/>
    <text id="ITEM_3_HEAD" x="444.0" y="690.0" text-anchor="middle" font-size="28" font-weight="800" fill="var(--primary-text)" data-bg-id="ITEM_3_TEXT_BG" fill-opacity="1.0" stroke="none" style="font-size: 30px; font-family: 'Segoe UI Variable Display', 'Aptos Display', 'Inter', 'Segoe UI', Helvetica, Arial, sans-serif; font-weight: 700; font-kerning: normal; font-feature-settings: &quot;kern&quot; 1, &quot;liga&quot; 1; letter-spacing:-0.4px;" data-final-font-size="30">
      <tspan x="444.0" dy="36.77px">Oceanic SOFAR Channel</tspan>
    </text>
    <rect id="ITEM_3_HEAD_FRAME" x="310" y="690" width="268" height="46" fill="none"/>
    <text id="ITEM_3_BODY" x="444.0" y="742.0" text-anchor="middle" font-size="18" fill="var(--primary-text)" data-bg-id="ITEM_3_TEXT_BG" style="font-size: 23px; font-family: 'Segoe UI Variable Text', 'Aptos', 'Inter', 'Segoe UI', Helvetica, Arial, sans-serif; font-weight: 400; font-kerning: normal; font-feature-settings: &quot;kern&quot; 1, &quot;liga&quot; 1;" data-final-font-size="23">
      <tspan x="444.0" dy="27.83px">Underwater sound trapped</tspan>
      <tspan x="444.0" dy="26.45px">and carried over thousands</tspan>
      <tspan x="444.0" dy="26.45px">of kilometers</tspan>
    </text>
    <rect id="ITEM_3_BODY_FRAME" x="304" y="742" width="280" height="102" fill="none"/>
  </g>
  <g filter="url(#svg7f3c5608-soft-shadow)">
    <rect id="ITEM_4_BG" x="725" y="610" width="470" height="270" rx="26" fill="var(--panel)" fill-opacity="0.97" stroke="var(--accent-4)" stroke-width="3"/>
    <rect x="725" y="610" width="470" height="16" rx="8" fill="var(--accent-4)" fill-opacity="0.55"/>
    <rect x="855" y="646" width="260" height="26" rx="13" fill="var(--accent-4)" fill-opacity="0.12"/>
    <circle id="ITEM_4_PAD" cx="803" cy="692" r="46" fill="var(--icon-pad-bg)" opacity="1" fill-opacity="0.9" stroke-width="2" stroke="var(--semantic-evidence)" stroke-opacity="0.72" data-badge-layer="pad"/>
    <circle id="ITEM_4_PAD_INNER" cx="803" cy="692" r="35.88" fill="var(--semantic-evidence)" fill-opacity="0.12" stroke="none" data-badge-layer="tint"/>
    <circle cx="803" cy="692" r="37" fill="none" stroke="var(--accent-4)" stroke-width="3" stroke-dasharray="6 4" display="none" data-suppressed-decoration="redundant-badge-ring"/>
    <g id="ITEM_4_ICON" transform="translate(769, 658)" data-icon-size="68" stroke-linecap="round" stroke-linejoin="round" data-badge-treatment="clean">
      <g transform="translate(-4.272000000000003,-4.272000000000004) scale(2.3920000000000003)">
        <path d="M27.938 8.83821C24.0423 5.04133 17.8344 5.05797 13.9753 8.86406C13.4392 8.67001 12.8612 8.56433 12.26 8.56433C10.458 8.56433 8.87859 9.50994 7.98809 10.929C4.08596 11.1722 1 14.4106 1 18.3743C1 20.1277 1.61099 21.7416 2.62059 23.0183C3.99219 24.8117 6.14877 25.9643 8.58 25.9643H21.27C24.4212 25.9643 27.2042 24.4125 28.9045 22.0385C31.9165 18.083 31.5813 12.4038 27.9394 8.83964L27.938 8.83821Z" fill="#B4ACBC"/>
        <path d="M14.55 9.70434C18.01 6.15434 23.69 6.09434 27.24 9.55434C30.52 12.7643 30.82 17.8843 28.1 21.4443C26.58 23.5743 24.09 24.9643 21.27 24.9643H8.58C6.47 24.9643 4.6 23.9643 3.41 22.4043C2.53 21.2943 2 19.8943 2 18.3743C2 14.8043 4.89 11.9143 8.46 11.9143C8.50303 11.9143 8.54595 11.9148 8.58877 11.9156C9.22825 10.5277 10.6316 9.56433 12.26 9.56433C12.9685 9.56433 13.6345 9.74673 14.2134 10.0671C14.3215 9.94392 14.4337 9.82294 14.55 9.70434Z" fill="#F3EEF8"/>
      </g>
    </g>
    <rect id="ITEM_4_TEXT_BG" x="869.0" y="674.0" width="300.0" height="188.0" rx="22" fill="var(--panel)" fill-opacity="0.94" stroke="var(--primary-text)" stroke-opacity="0.12" stroke-width="1.5"/>
    <rect id="COMPARISON_COLUMNS_ART_PANEL_SHEEN_4" x="869.0" y="674.0" width="300.0" height="188.0" rx="16" fill="var(--semantic-evidence)" opacity="0.82" fill-opacity="0.15" stroke="none"/>
    <text id="ITEM_4_HEAD" x="1019.0" y="690.0" text-anchor="middle" font-size="28" font-weight="800" fill="var(--primary-text)" data-bg-id="ITEM_4_TEXT_BG" fill-opacity="1.0" stroke="none" style="font-size: 31px; font-family: 'Segoe UI Variable Display', 'Aptos Display', 'Inter', 'Segoe UI', Helvetica, Arial, sans-serif; font-weight: 700; font-kerning: normal; font-feature-settings: &quot;kern&quot; 1, &quot;liga&quot; 1; letter-spacing:-0.4px;" data-final-font-size="31">
      <tspan x="1019.0" dy="37.05px">Atmospheric Ducting</tspan>
    </text>
    <rect id="ITEM_4_HEAD_FRAME" x="885" y="690" width="268" height="46" fill="none"/>
    <text id="ITEM_4_BODY" x="1019.0" y="742.0" text-anchor="middle" font-size="18" fill="var(--primary-text)" data-bg-id="ITEM_4_TEXT_BG" style="font-size: 23px; font-family: 'Segoe UI Variable Text', 'Aptos', 'Inter', 'Segoe UI', Helvetica, Arial, sans-serif; font-weight: 400; font-kerning: normal; font-feature-settings: &quot;kern&quot; 1, &quot;liga&quot; 1;" data-final-font-size="23">
      <tspan x="1019.0" dy="27.83px">Upper atmosphere layers guide</tspan>
      <tspan x="1019.0" dy="26.45px">infrasound over vast</tspan>
      <tspan x="1019.0" dy="26.45px">distances</tspan>
    </text>
    <rect id="ITEM_4_BODY_FRAME" x="879" y="742" width="280" height="102" fill="none"/>
  </g>
  <g filter="url(#svg7f3c5608-soft-shadow)">
    <rect id="ITEM_5_BG" x="1300" y="610" width="470" height="270" rx="26" fill="var(--panel)" fill-opacity="0.97" stroke="var(--accent-5)" stroke-width="3"/>
    <rect x="1300" y="610" width="470" height="16" rx="8" fill="var(--accent-5)" fill-opacity="0.55"/>
    <rect x="1430" y="646" width="260" height="26" rx="13" fill="var(--accent-5)" fill-opacity="0.12"/>
    <circle id="ITEM_5_PAD" cx="1378" cy="692" r="46" fill="var(--icon-pad-bg)" opacity="1" fill-opacity="0.9" stroke-width="2" stroke="var(--semantic-risk)" stroke-opacity="0.72" data-badge-layer="pad"/>
    <circle id="ITEM_5_PAD_INNER" cx="1378" cy="692" r="35.88" fill="var(--semantic-risk)" fill-opacity="0.12" stroke="none" data-badge-layer="tint"/>
    <circle cx="1378" cy="692" r="37" fill="none" stroke="var(--accent-5)" stroke-width="3" stroke-dasharray="6 4" display="none" data-suppressed-decoration="redundant-badge-ring"/>
    <g id="ITEM_5_ICON" transform="translate(1344, 658)" data-icon-size="68" stroke-linecap="round" stroke-linejoin="round" data-badge-treatment="clean">
      <g transform="translate(-7.005714285714289,-9.24821428571429) scale(2.562857142857143)">
        <path d="M8.97695 9.81822C7.68369 9.81822 7.53001 10.5467 7.61483 10.9109V25.3158L24.7324 27.2146L30.0002 22.5V15.0422L23.1876 8.26566L22.8596 8.02197L15.5002 9L12.4142 8.02197C12.2033 8.15625 11.951 8.32512 11.8094 8.46545C10.993 9.27463 10.3546 9.81822 8.97695 9.81822Z" fill="#8C5543"/>
        <path d="M13.6198 9.31063C13.035 9.08884 12.4462 8.80135 11.8037 8.47407C12.4581 7.81966 14.0595 6.21636 15.2299 5.03847C16.6928 3.5661 18.656 3.69821 19.9679 5.03847C20.2326 5.30884 20.5296 5.60931 20.8363 5.91774C18.5156 7.0625 16.3906 7.6875 13.6198 9.31063Z" fill="#CDC4D6"/>
        <path d="M13.1558 9.12228C14.1001 9.52955 15.0007 9.7862 16.0606 9.7862C17.6085 9.7862 18.8166 9.19163 19.4207 8.87073C20.0247 8.54982 21.0818 8.2006 21.9973 8.2006C22.7003 8.2006 23.0885 8.25855 23.2104 8.29102C22.8107 7.89374 22.362 7.44613 21.9279 7.00997C21.5508 6.63436 21.1458 6.22946 20.7593 5.84035C19.4543 4.68908 17.6172 4.64256 16.23 6.03871C15.2344 7.04072 13.9269 8.35058 13.1558 9.12228Z" fill="#F4F4F4"/>
        <path d="M5.96834 11.2402C5.07024 12.3299 2.95313 14.8594 2.00684 15.9879V22.5L16 27.8125L22.9724 25.3105L15.8325 18.1406C14.7667 17.0629 13.3627 16.2097 11.7162 16.2097C9.99483 16.2097 8.99195 14.7428 8.99195 13.0065C8.99195 10.9666 12.3886 10.1728 13.1604 9.12524C12.4433 8.81133 12.1057 8.64478 11.8209 8.46558C10.6252 9.68774 9.79822 9.78931 9.29321 9.78931C8.96166 9.78931 7.59646 9.61208 5.96834 11.2402Z" fill="#7D4533"/>
        <path d="M11.0125 23.0202C7.06082 21.6581 4.12549 21.9275 2 22.4664V29.9955H30V22.4609C26.8267 23.8679 23.4212 25.0261 20.0084 25.0261C16.5956 25.0261 14.9641 24.3824 11.0125 23.0202Z" fill="#00D26A"/>
      </g>
    </g>
    <rect id="ITEM_5_TEXT_BG" x="1444.0" y="674.0" width="300.0" height="188.0" rx="22" fill="var(--panel)" fill-opacity="0.94" stroke="var(--primary-text)" stroke-opacity="0.12" stroke-width="1.5"/>
    <rect id="COMPARISON_COLUMNS_ART_PANEL_SHEEN_5" x="1444.0" y="674.0" width="300.0" height="188.0" rx="16" fill="var(--semantic-risk)" opacity="0.82" fill-opacity="0.15" stroke="none"/>
    <text id="ITEM_5_HEAD" x="1594.0" y="690.0" text-anchor="middle" font-size="28" font-weight="800" fill="var(--primary-text)" data-bg-id="ITEM_5_TEXT_BG" fill-opacity="1.0" stroke="none" style="font-size: 31px; font-family: 'Segoe UI Variable Display', 'Aptos Display', 'Inter', 'Segoe UI', Helvetica, Arial, sans-serif; font-weight: 700; font-kerning: normal; font-feature-settings: &quot;kern&quot; 1, &quot;liga&quot; 1; letter-spacing:-0.4px;" data-final-font-size="31">
      <tspan x="1594.0" dy="37.05px">Ground Interference</tspan>
    </text>
    <rect id="ITEM_5_HEAD_FRAME" x="1460" y="690" width="268" height="46" fill="none"/>
    <text id="ITEM_5_BODY" x="1594.0" y="742.0" text-anchor="middle" font-size="18" fill="var(--primary-text)" data-bg-id="ITEM_5_TEXT_BG" style="font-size: 23px; font-family: 'Segoe UI Variable Text', 'Aptos', 'Inter', 'Segoe UI', Helvetica, Arial, sans-serif; font-weight: 400; font-kerning: normal; font-feature-settings: &quot;kern&quot; 1, &quot;liga&quot; 1;" data-final-font-size="23">
      <tspan x="1594.0" dy="27.83px">Terrain and surface winds</tspan>
      <tspan x="1594.0" dy="26.45px">disrupt low-altitude</tspan>
      <tspan x="1594.0" dy="26.45px">sound signals</tspan>
    </text>
    <rect id="ITEM_5_BODY_FRAME" x="1454" y="742" width="280" height="102" fill="none"/>
  </g>
  <text id="SOURCE_NOTE" x="134.0" y="1058.0" fill="var(--muted-text)" opacity="1" style="font-family: var(--font-family); font-size: 20px;">Source: Project Mogul</text>
  <text id="EDITORIAL_NOTE" x="1786.0" y="1058.0" fill="var(--semantic-uncertain)" opacity="1" style="font-family: var(--font-family); font-size: 20px;" text-anchor="end">Interpretations remain disputed; wording reflects source uncertainty.</text>
</svg>
